<?xml version="1.0" encoding="iso-8859-1"?>
<!-- Generator: Adobe Illustrator 19.0.0, SVG Export Plug-In . SVG Version: 6.00 Build 0)  -->
<svg version="1.1" id="Layer_1" xmlns="http://www.w3.org/2000/svg" xmlns:xlink="http://www.w3.org/1999/xlink" x="0px" y="0px"
	 viewBox="0 0 490 490" style="enable-background:new 0 0 490 490;" xml:space="preserve">
<g>
	<g>
		<path d="M453,266.4c11.8,0,21.4-9.6,21.4-21.4s-9.6-21.4-21.4-21.4h-27.6v-44.9H453c11.8,0,21.4-9.6,21.4-21.4
			c0-11.8-9.6-21.4-21.4-21.4h-27.6V21.4C425.4,9.6,415.8,0,404,0H37C25.2,0,15.6,9.6,15.6,21.4v447.2c0,11.8,9.6,21.4,21.4,21.4
			h367c11.8,0,21.4-9.6,21.4-21.4V353.1H453c11.8,0,21.4-9.6,21.4-21.4s-9.6-21.4-21.4-21.4h-27.6v-43.9L453,266.4L453,266.4z
			 M382.6,135.9h-9.9c-11.8,0-21.4,9.6-21.4,21.4c0,11.8,9.6,21.4,21.4,21.4h9.9v44.9h-9.9c-11.8,0-21.4,9.6-21.4,21.4
			s9.6,21.4,21.4,21.4h9.9v43.9h-9.9c-11.8,0-21.4,9.6-21.4,21.4s9.6,21.4,21.4,21.4h9.9v94.1H58.5V42.8h324.2v93.1H382.6z"/>
		<path d="M199.7,245c41.7,0,74.9-32.1,74.9-73.8c0-40.7-33.2-73.8-74.9-73.8c-40.7,0-74.9,33.2-74.9,73.8S158,245,199.7,245z
			 M199.7,140.2c18.2,0,33.2,13.9,33.2,32.1s-15,32.1-33.2,32.1s-33.2-15-33.2-32.1C166.5,154.1,181.5,140.2,199.7,140.2z"/>
		<path d="M107.7,391.6c11.8,0,21.4-9.6,21.4-21.4c0-34.2,32.1-62.1,70.6-62.1s70.6,27.8,70.6,62.1c0,11.8,9.6,21.4,21.4,21.4
			s21.4-9.6,21.4-21.4c0-57.8-51.4-104.8-113.4-104.8c-63.1,0-113.4,47.1-113.4,104.8C86.3,381.9,95.9,391.6,107.7,391.6z"/>
	</g>
</g>
<g>
</g>
<g>
</g>
<g>
</g>
<g>
</g>
<g>
</g>
<g>
</g>
<g>
</g>
<g>
</g>
<g>
</g>
<g>
</g>
<g>
</g>
<g>
</g>
<g>
</g>
<g>
</g>
<g>
</g>
</svg>
