<svg fill="none" height="61" viewBox="0 0 180 61" width="180" xmlns="http://www.w3.org/2000/svg"><g fill="#404041"><path d="m78.3518 23.5621h-4.8944v5.0933h-3.264v-17.3049c2.7194 0 5.4389-.026 8.1584-.026 8.4551 0 8.4812 12.2376 0 12.2376zm-4.8944-2.9934h4.8944c4.177 0 4.1542-6.1302 0-6.1302h-4.8944z"/><path d="m87.4238 28.6522v-17.3048h3.238v17.3048z"/><path d="m105.964 11.3506h3.584v.15l-5.86 8.4062 6.033 8.654v.0979h-3.659l-4.425-6.502-4.4247 6.502h-3.6586v-.0979l6.0063-8.654-5.8335-8.4062v-.15h3.5836l4.3269 6.453z"/><path d="m125.049 28.6522h-12.951c0-5.7585 0-11.543 0-17.3048h12.951v3.1629h-9.713v3.9814h9.368v3.0423h-9.368v3.9064h9.713z"/><path d="m131.327 11.3506v14.2886h8.898v3.0162h-12.163v-17.3048z"/><path d="m88.8845 52.9676h-2.7683l-2.1521-5.439-1.8293-5.4617-1.8032 5.5139-2.0999 5.39h-2.7684l-6.352-17.3048h3.6586l4.0792 12.4854 4.2031-12.4854h2.126l4.327 12.4854 3.9553-12.4854h3.6586z"/><path d="m107.425 49.7068h-9.0483l-1.4836 3.264h-3.5347l7.7636-17.3048h3.561l7.761 17.3048h-3.561zm-4.526-10.4083-3.2147 7.366h6.4267z"/><path d="m117.928 35.6628v14.2887h8.899v3.0162h-12.163v-17.3049z"/><path d="m144.973 52.9675h-3.88l-5.041-5.7845h-3.141v5.7845h-3.264v-17.3276c2.746 0 5.488.0261 8.234.0261 4.079.0261 6.228 2.7455 6.228 5.7356 0 2.3739-1.086 4.7705-4.376 5.439l5.24 5.9085zm-12.065-14.2625v5.5368h4.97c2.077 0 2.967-1.3859 2.967-2.7684 0-1.3826-.913-2.7684-2.967-2.7684z"/><path d="m162.499 35.6887v9.9127c0 5.1161-3.14 7.7378-7.49 7.7378-4.154 0-7.689-2.5206-7.689-7.7378v-9.9127h3.238v9.9127c0 3.114 1.781 4.7705 4.474 4.7705s4.226-1.8032 4.226-4.7705v-9.9127z"/><path d="m176.859 39.8431c-.593-.988-2.223-1.9271-4.105-1.9271-2.423 0-3.584 1.0141-3.584 2.2989 0 1.5064 1.781 1.9271 3.858 2.1749 3.61.4435 6.971 1.3858 6.971 5.5139 0 3.8575-3.41 5.514-7.268 5.514-3.534 0-6.254-1.0891-7.539-4.2521l2.72-1.4086c.766 1.9043 2.768 2.7423 4.871 2.7423 2.051 0 3.979-.7174 3.979-2.5956 0-1.6336-1.706-2.2988-4.005-2.5466-3.534-.4207-6.798-1.3598-6.798-5.2401 0-3.5607 3.511-5.0182 6.7-5.0411 2.694 0 5.488.7663 6.799 3.4369z"/></g><path d="m11.04 19.4846c-.0259.4081-.0389.8162-.0389 1.2275v24.6341c0 2.957-2.39651 5.3537-5.35332 5.3537h-.45987c-2.72039 0-5.0942607 2.0891-5.18494041 4.8064-.07448689 2.1797 1.25980041 4.0549 3.15760041 4.8031h9.90673c2.9439 0 5.3275-2.387 5.3275-5.3278v-2.374c0-.5765.4663-1.0429 1.0428-1.0429.4469 0 .8226.2818.9748.6737v-32.7538z" fill="#ff675c"/><path d="m58.065 50.6975h-.4491c-2.8675 0-5.1916-2.3965-5.1916-5.3533v-24.6322c0-.4113-.0157-.8226-.0377-1.2274h-8.7782v35.559c0-.013.0031-.0227.0031-.0324s0-.0195 0-.0292v-2.3738c0-.5765.4523-1.0428 1.0113-1.0428.5591 0 1.0113.4663 1.0113 1.0428v2.3738c0 2.9438 2.3147 5.3274 5.1665 5.3274h9.2273c1.8436-.7449 3.1344-2.6232 3.0622-4.8027-.0848-2.7204-2.387-4.8092-5.0251-4.8092z" fill="#ffc13e"/><path d="m17.5173 5.68176c-3.669 3.51463-6.06 8.38984-6.3835 13.80274h11.557c-1.1195-.1442-1.8766-1.3114-1.4786-2.4228 1.5562-4.3277 5.5779-7.46532 10.334-7.66531v-9.39639c-5.4162 0-10.3599 2.16057-14.0289 5.68176zm2.0125 6.38664c-.1165.023-.2395.0361-.3657.0361-.9997 0-1.8118-.8197-1.8118-1.8327 0-1.01312.8121-1.83276 1.8118-1.83276.0583 0 .1101.00328.1618.00984.0065-.00328.013-.00328.0227 0 .9156.0918 1.6242.87209 1.6242 1.81962 0 .8819-.618 1.6229-1.4398 1.7966h-.0032z" fill="#3aaafe"/><path d="m31.4941 0v9.44779c.1589-.0066.321-.00989.4799-.00989 4.9751 0 9.2237 3.2207 10.8355 7.7171.4249 1.1966-.4702 2.4559-1.7189 2.4559h-.6259c.0292.8769.0422 1.7538.0422 2.6372 0 5.6667-.5644 11.2015-1.6411 16.5452-.107.5208-.8627.4417-.8627-.089.0065-2.3471-.0227-4.9217-.0811-5.8909-.2724-4.5096-.908-8.9236-1.881-13.2025h-1.4789c-.0032-.0066-.0032-.0099-.0065-.0165h-.0324c.0032.0066.0065.0099.0097.0165h-6.1134c.0033-.0066.0065-.0099.0098-.0165h-.039c-.0032.0066-.0032.0099-.0065.0165h-1.0832c-.9697 4.2789-1.6053 8.6929-1.8843 13.2025-.0583.9692-.0843 3.5438-.081 5.8909.0032.5307-.7525.6098-.8595.089-1.0767-5.3437-1.641-10.8818-1.641-16.5452 0-.8802.0129-1.757.0421-2.6372h-.0259c-.0811 0-.1589-.0033-.2368-.0165h-2.2021v33.3376c.0454.1154.0714.2406.0714.3758v2.446c-.0033 1.4768 1.1026 2.6998 2.5556 2.6998h17.3056c1.44 0 2.5362-1.2065 2.5459-2.6635v-36.1957h9.0679c-.6454-10.89162-9.5998-19.5944-20.4644-19.5944zm12.4116 12.1674c-.1232 0-.2497-.0132-.3665-.0363 0 0 0 0-.0032 0-.8205-.1747-1.4432-.9164-1.4432-1.8065 0-.95264.7135-1.73721 1.628-1.82951.0065-.00329.013-.00329.0228 0 .0518-.00659.107-.00989.1621-.00989 1.0022 0 1.8162.82413 1.8162 1.8427 0 1.0187-.814 1.8395-1.8162 1.8395z" fill="#5551ff"/></svg>